<?xml version="1.0" standalone="no"?>
<!DOCTYPE svg PUBLIC "-//W3C//DTD SVG 20010904//EN"
 "http://www.w3.org/TR/2001/REC-SVG-20010904/DTD/svg10.dtd">
<svg version="1.0" xmlns="http://www.w3.org/2000/svg"
 width="1393.000000pt" height="1393.000000pt" viewBox="0 0 1393.000000 1393.000000"
 preserveAspectRatio="xMidYMid meet">
<metadata>
Created by potrace 1.14, written by Peter Selinger 2001-2017
</metadata>
<g transform="translate(0.000000,1393.000000) scale(0.100000,-0.100000)"
fill="#000000" stroke="none">
<path d="M4277 12814 c-1 -1 -285 -5 -632 -9 -346 -4 -679 -8 -740 -10 -60 -2
-190 -4 -287 -4 l-177 -1 5 -22 c11 -58 45 -275 59 -388 34 -272 43 -346 50
-415 3 -33 7 -71 10 -85 2 -14 7 -52 10 -85 3 -33 7 -76 10 -95 2 -19 6 -55 9
-80 7 -64 18 -160 22 -195 2 -16 6 -61 9 -100 4 -38 8 -77 10 -85 2 -8 7 -46
10 -85 3 -38 8 -79 10 -90 2 -11 7 -54 10 -95 3 -41 8 -86 10 -100 2 -14 6
-54 10 -90 3 -36 8 -81 10 -100 6 -50 14 -126 20 -190 3 -30 7 -73 10 -95 3
-22 7 -62 10 -90 3 -27 8 -63 10 -80 2 -16 7 -61 10 -98 4 -37 8 -76 9 -85 2
-9 7 -44 10 -77 32 -288 63 -464 82 -472 7 -2 32 6 56 20 141 80 353 200 395
223 26 15 95 54 152 86 57 33 129 74 160 91 31 17 70 39 86 49 17 10 35 18 41
18 6 0 16 -55 23 -142 14 -148 16 -178 26 -263 3 -27 7 -79 10 -115 3 -36 7
-83 10 -105 2 -22 7 -71 10 -110 3 -38 8 -86 10 -105 2 -19 7 -66 10 -105 3
-38 8 -86 10 -105 2 -19 7 -64 10 -100 3 -36 8 -85 10 -110 5 -50 23 -235 30
-320 3 -30 7 -73 10 -95 3 -22 7 -69 10 -105 3 -36 7 -85 10 -110 2 -25 7 -72
10 -105 3 -33 12 -125 19 -205 8 -80 18 -176 21 -215 3 -38 8 -88 10 -110 2
-22 7 -71 10 -110 3 -38 8 -81 10 -95 2 -14 7 -61 10 -105 3 -44 8 -96 10
-115 3 -19 14 -132 25 -250 11 -118 22 -235 25 -260 2 -25 9 -99 15 -165 6
-66 12 -138 15 -160 2 -22 7 -67 10 -100 3 -33 7 -82 10 -110 3 -27 7 -75 10
-105 5 -56 13 -141 20 -215 3 -22 7 -69 10 -105 3 -36 8 -81 10 -100 4 -33 11
-100 20 -216 4 -43 16 -169 40 -414 2 -25 7 -76 10 -115 3 -38 8 -86 10 -105
5 -39 11 -96 20 -210 3 -41 8 -86 10 -100 2 -14 7 -65 11 -115 3 -49 7 -97 9
-105 2 -8 6 -53 10 -100 3 -47 8 -96 10 -110 2 -14 6 -59 10 -100 3 -41 7 -91
10 -110 2 -19 7 -69 10 -110 4 -41 8 -86 10 -100 2 -14 7 -63 10 -110 4 -47 9
-93 10 -102 2 -9 6 -49 10 -90 3 -40 8 -91 10 -113 2 -22 7 -71 10 -110 3 -38
8 -86 10 -105 2 -19 7 -69 10 -110 3 -41 8 -91 10 -110 2 -19 7 -64 10 -100 3
-36 8 -85 11 -110 6 -57 11 -106 19 -200 3 -41 8 -91 10 -110 2 -19 7 -64 10
-100 10 -105 14 -152 19 -205 3 -27 8 -79 11 -115 3 -36 8 -85 10 -110 3 -25
7 -70 10 -100 8 -92 25 -273 30 -315 3 -22 7 -65 9 -95 13 -140 27 -289 31
-325 3 -22 7 -71 10 -110 9 -117 14 -137 33 -131 80 25 496 157 607 193 77 24
174 55 215 68 74 23 166 52 805 255 176 56 381 121 455 145 l135 42 -1 99 c-1
104 -7 304 -29 994 -3 96 -8 249 -10 340 -3 91 -7 230 -10 310 -3 80 -8 224
-10 320 -3 96 -7 240 -10 320 -3 80 -7 228 -10 330 -2 102 -7 248 -10 325 -3
77 -7 221 -10 320 -3 99 -7 248 -10 330 -5 148 -9 279 -20 630 l-6 180 93 39
c98 42 157 68 301 135 49 23 90 41 92 41 1 0 56 25 121 56 66 31 161 76 212
100 202 95 283 135 697 339 237 117 491 246 565 285 291 156 741 419 1025 598
44 28 107 68 140 88 80 50 545 360 623 415 327 231 476 346 697 539 67 58 287
280 351 355 292 337 454 683 454 968 0 76 -34 260 -75 402 -108 376 -307 739
-580 1055 -69 80 -267 268 -365 346 -411 329 -830 549 -1455 764 -364 125
-798 240 -1240 326 -98 19 -365 66 -425 74 -41 6 -86 13 -100 15 -94 16 -612
76 -780 90 -41 3 -91 8 -110 10 -19 2 -71 7 -115 10 -44 3 -100 8 -125 10 -25
2 -88 7 -140 10 -52 3 -117 8 -145 10 -27 2 -108 7 -180 10 -71 3 -150 8 -175
10 -25 2 -137 7 -250 11 -113 3 -230 8 -260 9 -176 9 -1327 25 -1333 19z
m3398 -3047 c11 -2 52 -8 90 -12 39 -4 120 -15 180 -26 61 -11 120 -22 132
-24 60 -10 283 -72 398 -110 211 -69 475 -187 520 -233 100 -100 -38 -333
-345 -582 -228 -185 -537 -384 -1165 -752 -364 -213 -822 -464 -831 -455 -4 4
-11 209 -19 577 -2 140 -7 341 -10 445 -3 105 -7 280 -10 390 -3 110 -7 306
-10 436 l-6 236 93 26 c256 70 455 95 743 92 121 -2 229 -5 240 -8z"/>
</g>
</svg>
