<?xml version="1.0" encoding="UTF-8"?>
<svg id="Layer_1" data-name="Layer 1" xmlns="http://www.w3.org/2000/svg" width="616.41" height="616.41" viewBox="0 0 616.41 616.41">
  <defs>
    <style>
      .cls-1 {
        fill: #FFF;
        stroke-width: 0px;
      }
    </style>
  </defs>
  <path class="cls-1" d="M511.61,0H105.13C35.49,0,0,34.49,0,103.79v408.82c0,69.31,35.49,103.79,105.13,103.79h406.47c69.98,0,104.8-34.82,104.8-103.79V103.79c0-68.97-34.82-103.79-104.8-103.79ZM432.89,511.68c-5.54,6.02-13.78,9.02-24.7,9.02h-188.97c-15.14,0-26.03-3.98-32.67-11.94-6.64-7.96-9.95-20.82-9.95-38.59V164.23c0-11.84,1.48-21.52,4.45-29.01,2.96-7.5,7.61-12.95,13.93-16.38,6.32-3.42,14.4-5.14,24.24-5.14h183.58c11.08,0,19.32,2.92,24.7,8.75s8.08,13.46,8.08,22.9-2.69,17.35-8.08,23.18-13.62,8.75-24.7,8.75h-156.65v99.95h144.24c10.61,0,18.54,2.82,23.77,8.47,5.23,5.65,7.84,13.1,7.84,22.35s-2.58,16.8-7.73,22.63c-5.15,5.83-13.11,8.75-23.88,8.75h-144.24v115.77h162.04c10.93,0,19.16,3.01,24.7,9.02,5.54,6.02,8.31,14.02,8.31,24.01s-2.77,17.45-8.31,23.46Z"/>
</svg>