<?xml version="1.0" encoding="UTF-8"?>
<svg id="Layer_1" data-name="Layer 1" xmlns="http://www.w3.org/2000/svg" width="616.4" height="616.4" viewBox="0 0 616.4 616.4">
  <defs>
    <style>
      .cls-1 {
        fill: #FFF;
        stroke-width: 0px;
      }
    </style>
  </defs>
  <path class="cls-1" d="M511.6,0H105.13C35.49,0,0,34.49,0,103.79v408.82c0,69.31,35.49,103.79,105.13,103.79h406.47c69.98,0,104.8-34.82,104.8-103.79V103.79c0-68.97-34.82-103.79-104.8-103.79ZM344.86,475.18c0,14.68-3.49,25.78-10.47,33.3s-15.84,11.28-26.59,11.28-19.47-3.85-26.18-11.55-10.07-18.71-10.07-33.03v-209.74c0-14.5,3.36-25.42,10.07-32.76,6.71-7.34,15.44-11.01,26.18-11.01s19.6,3.67,26.59,11.01c6.98,7.34,10.47,17.55,10.47,30.62v211.89ZM334.12,178.02c-7.16,6.36-15.67,9.53-25.51,9.53s-18.93-3.13-26.18-9.4c-7.25-6.26-10.88-15.13-10.88-26.59,0-10.38,3.71-18.93,11.15-25.65,7.43-6.71,16.07-10.07,25.92-10.07s17.9,3.05,25.24,9.13c7.34,6.09,11.01,14.95,11.01,26.59s-3.58,20.1-10.74,26.45Z"/>
</svg>