<?xml version="1.0" encoding="UTF-8"?>
<svg id="Layer_1" data-name="Layer 1" xmlns="http://www.w3.org/2000/svg" width="616.41" height="616.41" viewBox="0 0 616.41 616.41">
  <defs>
    <style>
      .cls-1 {
        fill: #FFF;
        stroke-width: 0px;
      }
    </style>
  </defs>
  <path class="cls-1" d="M105.13,616.41h406.47c69.98,0,104.8-34.82,104.8-103.79V103.79c0-68.97-34.82-103.79-104.8-103.79H105.13C35.49,0,0,34.49,0,103.79v408.82c0,69.31,35.49,103.79,105.13,103.79ZM316.74,119.87c8.04,0,14.73,3.35,21.76,10.38l123.21,123.55c4.35,4.69,7.7,11.05,7.7,18.75,0,15.07-11.72,26.79-26.79,26.79-8.04,0-14.73-3.35-19.42-8.04l-44.87-45.87-37.17-43.86,3.01,77.34v189.84c0,16.07-11.38,27.12-27.46,27.12s-27.46-11.05-27.46-27.12v-189.84l2.68-77.01-36.5,43.53-45.2,45.87c-4.35,4.35-11.72,8.04-19.42,8.04-15.07,0-26.45-11.72-26.45-26.79,0-7.7,2.68-14.06,7.37-18.75l123.55-123.55c7.37-7.37,13.39-10.38,21.43-10.38Z"/>
</svg>