<?xml version="1.0" encoding="UTF-8"?>
<svg id="Layer_1" data-name="Layer 1" xmlns="http://www.w3.org/2000/svg" width="616.4" height="616.4" viewBox="0 0 616.4 616.4">
  <defs>
    <style>
      .cls-1 {
        fill: #FFF;
        stroke-width: 0px;
      }
    </style>
  </defs>
  <path class="cls-1" d="M105.1,616.4h406.5c70,0,104.8-34.8,104.8-103.8V103.8c0-69-34.8-103.8-104.8-103.8H105.1C35.5,0,0,34.5,0,103.8v408.8c0,69.3,35.5,103.8,105.1,103.8ZM308,474.4c-19.1,0-29.1-13.7-29.1-33.1v-104.1h-109.8c-19.8,0-33.5-10.4-33.5-28.8s13.1-29.8,33.5-29.8h109.8v-110.8c0-19.4,10-33.1,29.1-33.1s29.8,13.1,29.8,33.1v110.8h110.2c20.4,0,33.1,10.7,33.1,29.8s-13.4,28.8-33.1,28.8h-110.2v104.1c0,20.1-11.4,33.1-29.8,33.1h0Z"/>
</svg>