<?xml version="1.0" encoding="UTF-8"?>
<svg id="Layer_1" data-name="Layer 1" xmlns="http://www.w3.org/2000/svg" width="607.7" height="607.58" viewBox="0 0 607.7 607.58">
  <defs>
    <style>
      .cls-1 {
        fill: #FFF;
        stroke-width: 0px;
      }
    </style>
  </defs>
  <path class="cls-1" d="M607.69,303.93c-1.73-126.44-79.14-239.66-197.59-284.84C290.71-26.42,149.93,11.6,69.19,110.24-11.15,208.47-23.32,350,42.12,459.54c65.31,109.3,193.34,165.62,318.05,143.17,142.19-25.58,243.97-153.31,247.42-295.53.09-1.08.13-2.17.11-3.25ZM89.87,176.25C142.54,88.16,247.96,39.72,349.16,59.14c108.44,20.77,188.17,110.11,201.3,217.19h-149.09c-12.91-42.75-50-75-97.84-75s-86.17,32.27-98.61,75H56.57c3.76-35.37,15.12-69.51,33.3-100.08ZM350.93,303.94c-3.12,60.55-94.8,61.56-94.8,0s91.73-60.58,94.8,0ZM388.43,537.99c-98.87,35.45-211.14,4.45-277.86-76.67-30.22-37.06-48.99-82.13-54.02-129.69h148.23c12.36,42.8,52.66,75,98.73,75s84.94-32.31,97.84-75h149.14c-11.33,92.47-72.37,174.22-162.06,206.36h-.02Z"/>
</svg>